 http://www.imdb.com/title/tt1326972/


Red Cliff is a Chinese historical epic set in 208 AD and tells the story of the most famous Chinese battle of all time, The Battle of Red Cliff. A true David and Goliath story, Red Cliff is set at a time when China was divided into three warring states. To unite them together Prime Minister Cao Cao sent 800,000 soldiers to wipe out the South and West Kingdoms, whose combines army was a fraction of the size, but their resistance and courage against this larger army was to go down in history.

Format : MPEG-4
Format profile : Base Media / Version 2
Codec ID : mp42
File size : 999 MiB
Duration : 2h 21mn
Overall bit rate : 986 Kbps
Encoded date : UTC 2009-10-25 07:15:25
Tagged date : UTC 2009-10-25 13:24:33
Writing application : HandBrake 0.9.3 2008112300

Video
ID : 1
Format : AVC
Format/Info : Advanced Video Codec
Format profile : Main@L4.0
Format settings, CABAC : Yes
Format settings, ReFrames : 3 frames
Codec ID : avc1
Codec ID/Info : Advanced Video Coding
Duration : 2h 21mn
Bit rate mode : Variable
Bit rate : 822 Kbps
Width : 720 pixels
Height : 434 pixels
Display aspect ratio : 2.35:1
Frame rate mode : Variable
Frame rate : 25.000 fps
Minimum frame rate : 12.500 fps
Maximum frame rate : 25.000 fps
Resolution : 24 bits
Colorimetry : 4:2:0
Scan type : Progressive
Bits/(Pixel*Frame) : 0.105
Stream size : 833 MiB (83%)
Writing library : x264 core 65


Audio
ID : 2
Format : AAC
Format/Info : Advanced Audio Codec
Format version : Version 4
Format profile : LC
Format settings, SBR : No
Codec ID : 40
Duration : 2h 21mn
Bit rate mode : Variable
Bit rate : 160 Kbps
Maximum bit rate : 223 Kbps
Channel(s) : 2 channels
Channel positions : L R
Sampling rate : 48.0 KHz
Resolution : 16 bits
Stream size : 162 MiB (16%)
Language : Chinese
Encoded date : UTC 2009-10-25 07:15:25
Tagged date : UTC 2009-10-25 13:24:32 